<svg xmlns="http://www.w3.org/2000/svg" xmlns:xlink="http://www.w3.org/1999/xlink" width="363.555" height="83.411" viewBox="0 0 363.555 83.411">
  <defs>
    <clipPath id="clip-path">
      <rect id="Rectangle_46" data-name="Rectangle 46" width="26.526" height="31.203" fill="#fff"/>
    </clipPath>
  </defs>
  <g id="Group_45" data-name="Group 45" transform="translate(-603.034 -2202.788)">
    <path id="Path_200" data-name="Path 200" d="M11.631-23.638v1q0,9.648,1.135,11.132a4.227,4.227,0,0,0,2.663,1.4v.437q-3.361-.175-5.675-.175-.786,0-6.854.175v-.437a3.375,3.375,0,0,0,2.357-1.026,6.716,6.716,0,0,0,.917-3.427q.218-2.27.218-8.076v-9.342q0-4.5-.568-5.3a3.326,3.326,0,0,0-2.052-1.157v-.437h14.58a26.923,26.923,0,0,1,8.862,1.179q5.544,2.008,5.544,6.33,0,3.711-4.256,5.871T16.824-23.332a33.117,33.117,0,0,1-5.193-.306Zm0-14.057V-24.86a22.422,22.422,0,0,0,4.016.349,16.877,16.877,0,0,0,8.032-1.615,5.518,5.518,0,0,0,2.968-5.238q0-6.33-9.822-6.33Zm41.559,3.973-1.877,5.238a2.9,2.9,0,0,0-2.4-1.179,4.077,4.077,0,0,0-3.688,2.423,14.021,14.021,0,0,0-1.331,6.7v4.365a11.7,11.7,0,0,0,.589,4.649,3.385,3.385,0,0,0,2.6,1.465v.393q-2.928-.175-5.372-.175-2.4,0-5.5.175v-.393a3.112,3.112,0,0,0,2.443-1.528,10.914,10.914,0,0,0,.742-4.584v-7.945a33.24,33.24,0,0,0-.327-6.352q-.327-1.07-2.159-1.64v-.349a61.688,61.688,0,0,0,7.075-1.484q-.044.527-.175,5.064l-.044,1.746a26.612,26.612,0,0,1,2.4-3.537q2.794-3.274,6.243-3.1Zm15.846-.48a14.1,14.1,0,0,1,9.909,3.6,11.766,11.766,0,0,1,3.929,9.058,11.4,11.4,0,0,1-1.266,5.151,12.66,12.66,0,0,1-3.449,4.278,14.1,14.1,0,0,1-9.08,2.925A14.214,14.214,0,0,1,60-12.113a11.625,11.625,0,0,1-4.715-9.559A11.936,11.936,0,0,1,56.551-27,12.123,12.123,0,0,1,60-31.276,14.261,14.261,0,0,1,69.036-34.2Zm.044,1.179a7.069,7.069,0,0,0-6.021,3.056q-2.226,3.056-2.226,8.294a13.736,13.736,0,0,0,2.226,8.251,7.069,7.069,0,0,0,6.021,3.056,7.1,7.1,0,0,0,6-3.034,13.373,13.373,0,0,0,2.248-8.141q0-5.369-2.2-8.425A7.054,7.054,0,0,0,69.079-33.023ZM86.672-31.5v-.393A62.921,62.921,0,0,0,93.7-33.329q-.131,1.31-.175,4.5,0,.262-.044,1.048a17.263,17.263,0,0,1,2.1-3.23,9.024,9.024,0,0,1,7.247-3.187,12.476,12.476,0,0,1,9.036,3.558,11.717,11.717,0,0,1,3.667,8.753,12.129,12.129,0,0,1-3.711,9.125A13.141,13.141,0,0,1,102.3-9.188a10.807,10.807,0,0,1-5.107-1.07,10.126,10.126,0,0,1-3.623-3.558q.131,6.81.262,8.731a6.976,6.976,0,0,0,.917,3.405,4.222,4.222,0,0,0,2.27.873v.349Q94.53-.632,91.954-.632t-5.893.175V-.807q1.877-.349,2.226-1.441.828-2.71.828-13.751v-7.508a33.239,33.239,0,0,0-.327-6.352q-.327-1.07-2.117-1.637Zm15.5-1.528a7.216,7.216,0,0,0-4.387,1.505A9.357,9.357,0,0,0,94.7-27.48q-.786,1.877-.786,6.679A13.633,13.633,0,0,0,95.1-14.648a7.146,7.146,0,0,0,6.766,4.322,6.9,6.9,0,0,0,5.959-3.056q2.161-3.056,2.161-8.469a13.963,13.963,0,0,0-2.117-8.163,6.623,6.623,0,0,0-5.7-3.009Zm43.785,8.6H125.7q-.087,1.31-.087,2.619a15.015,15.015,0,0,0,1.746,7.334,7.769,7.769,0,0,0,2.99,2.99,8.411,8.411,0,0,0,4.256,1.113,10.223,10.223,0,0,0,8.687-4.627,15.078,15.078,0,0,0,1.964-4.06l1.048.527q-3.012,9.339-12.7,9.339a13.769,13.769,0,0,1-9.735-3.514,11.783,11.783,0,0,1-3.8-9.058,11.666,11.666,0,0,1,3.8-8.881,13.378,13.378,0,0,1,9.517-3.558,12.84,12.84,0,0,1,9.778,3.972,9.149,9.149,0,0,1,2.794,5.8ZM125.873-25.6h14.1a7.677,7.677,0,0,0-1.855-5.391,6.334,6.334,0,0,0-4.911-2.032,6.548,6.548,0,0,0-4.867,2.032,9.356,9.356,0,0,0-2.466,5.391Zm40.643-8.12-1.877,5.238a2.9,2.9,0,0,0-2.4-1.179,4.077,4.077,0,0,0-3.688,2.423,14.021,14.021,0,0,0-1.331,6.7v4.365a11.7,11.7,0,0,0,.589,4.649,3.377,3.377,0,0,0,2.6,1.462v.4q-2.925-.175-5.369-.175-2.4,0-5.5.175v-.393a3.112,3.112,0,0,0,2.445-1.528,10.913,10.913,0,0,0,.742-4.584v-7.945a33.241,33.241,0,0,0-.327-6.352q-.327-1.07-2.163-1.64v-.349a61.689,61.689,0,0,0,7.075-1.484q-.044.527-.175,5.064l-.044,1.746a26.613,26.613,0,0,1,2.4-3.537q2.794-3.274,6.243-3.1ZM178-39.442v7.031h5.193l-.742,1.441H178V-25.3q0,4.627.306,9.342a11.035,11.035,0,0,0,.917,4.322,3.3,3.3,0,0,0,2.488,1.528v.348h-6.5a4.271,4.271,0,0,1-1.79-3.143,31.261,31.261,0,0,1-.131-3.754q0-2.226.131-6.155.087-2.619.087-3.667v-4.5h-3.973l.393-.917q4.715-1.266,7.727-7.552ZM188.429-.589l2.052-5.806A3.764,3.764,0,0,0,193.8-4.212a4.482,4.482,0,0,0,3.143-1.615,4.94,4.94,0,0,0,1.573-3.492q0-1.656-2.183-6.068l-5.589-11.3a35.7,35.7,0,0,0-2.75-4.933,5.23,5.23,0,0,0-2.445-1.7v-.393q3.623.175,5.85.175,2.357,0,4.8-.175v.393q-2.183.306-2.183,2.008a4.449,4.449,0,0,0,.262,1.572q.437,1,2.27,4.409l5.72,10.521,1.656-3.011a86.48,86.48,0,0,0,3.839-7.77,13.043,13.043,0,0,0,1.266-4.8q0-2.226-2.75-2.925v-.393q3.011.175,4.933.175,2.139,0,4.06-.175v.393a13.472,13.472,0,0,0-3.034,2.837,60.22,60.22,0,0,0-3.514,6.112L200.565-9.014q-3.187,6.021-7.159,7.77a8.938,8.938,0,0,1-3.623.786,6.884,6.884,0,0,1-1.353-.131Z" transform="translate(751.316 2264.637)" fill="#fff"/>
    <path id="Path_199" data-name="Path 199" d="M32.146-12.139h-6.7a23.846,23.846,0,0,1-1.37-4.941,13.329,13.329,0,0,1-2.74,3.473,10.114,10.114,0,0,1-6.608,2.153,13.736,13.736,0,0,1-8.146-2.275,6.9,6.9,0,0,1-3.2-5.847q0-4.843,5.72-7.045a33.89,33.89,0,0,1,12.035-1.81H23.83v-1.663q0-8.121-7.877-8.121-4.941,0-7.677,2.838a7.655,7.655,0,0,0-1.859,3.62l-.44.147L4.509-36.649A26.361,26.361,0,0,1,16.98-39.535q6.164,0,9.344,2.691a7.621,7.621,0,0,1,2.226,3.255,16.123,16.123,0,0,1,.66,5.161v5.871q0,4.745.147,5.724.538,3.62,2.785,4.305ZM23.83-27.109H21.139q-11.595,0-11.591,7.583a6.824,6.824,0,0,0,1.806,4.77,5.692,5.692,0,0,0,4.354,1.982A7.32,7.32,0,0,0,19.818-14,8.354,8.354,0,0,0,22.7-17.226q1.125-2.3,1.125-7.289Zm41.584,14.97h-8.9a31.847,31.847,0,0,1-3.62-5.43,37.238,37.238,0,0,0-4.55-6.849q-1.761-1.859-2.984-1.859a1.724,1.724,0,0,0-1.444.758,3.161,3.161,0,0,0-.562,1.933v4.256a14.1,14.1,0,0,0,.612,5.186,3.453,3.453,0,0,0,2.711,1.663v.44q-3.274-.2-5.818-.2-2.446,0-5.969.2v-.44a3.532,3.532,0,0,0,2.642-1.765,12.544,12.544,0,0,0,.783-5.088V-30.827a123.631,123.631,0,0,0-.489-13.4,2.591,2.591,0,0,0-2.593-2.5v-.44A45.363,45.363,0,0,0,43.5-49.075q0,1.957-.1,4.794-.049,1.419-.049,3.963v13.16l5.675-4.305q4.941-3.763,4.941-5.528,0-.93-1.37-1.566V-39a54.653,54.653,0,0,0,5.773.2,40.89,40.89,0,0,0,5.039-.2v.44a25.943,25.943,0,0,0-5.626,2.5q-1.957,1.174-7.192,5.088l-4.109,3.082a12.84,12.84,0,0,1,6.213,1.712,20.932,20.932,0,0,1,4.7,5.626q4.941,7.73,8.023,8.023Zm29.451-25L93.1-32.246l-.391-.2q-1.321-5.773-8.561-5.773a8.333,8.333,0,0,0-5.186,1.493,4.714,4.714,0,0,0-1.957,3.938,3.391,3.391,0,0,0,1.419,2.958,13.282,13.282,0,0,0,5.039,1.639l3.376.587A16.488,16.488,0,0,1,93.1-25.546,6.021,6.021,0,0,1,95.7-20.36a7.333,7.333,0,0,1-1.248,4.036A8.731,8.731,0,0,1,91.2-13.313a18.842,18.842,0,0,1-8.9,1.81A31.075,31.075,0,0,1,69.23-14.389l1.712-5.186.342.1a6.405,6.405,0,0,0,2.2,3.718,13.364,13.364,0,0,0,8.855,2.935,9.957,9.957,0,0,0,5.871-1.59,4.855,4.855,0,0,0,2.25-4.134A3.88,3.88,0,0,0,88.8-21.923,9.517,9.517,0,0,0,85.374-23L81.7-23.635q-9.931-1.712-9.931-7.779a6.891,6.891,0,0,1,3.18-5.871,14.092,14.092,0,0,1,8.317-2.25A31.8,31.8,0,0,1,94.865-37.138Z" transform="translate(651.847 2266.267)" fill="#fff"/>
    <path id="Path_202" data-name="Path 202" d="M5.035-43.032A35.388,35.388,0,0,1,6.572-53.614a25.448,25.448,0,0,1,4.54-8.619,21.591,21.591,0,0,1,7.436-5.827,23.2,23.2,0,0,1,10.225-2.145A24.791,24.791,0,0,1,39.32-68.1,21.314,21.314,0,0,1,46.9-62.3a25.058,25.058,0,0,1,4.576,8.652,35.74,35.74,0,0,1,1.537,10.619,34.791,34.791,0,0,1-1.538,10.475,25.5,25.5,0,0,1-4.544,8.576,21.416,21.416,0,0,1-7.5,5.828,24.022,24.022,0,0,1-10.439,2.141,24.022,24.022,0,0,1-10.439-2.145,21.416,21.416,0,0,1-7.508-5.828,25.013,25.013,0,0,1-4.5-8.58A35.558,35.558,0,0,1,5.035-43.032ZM29.059-20.151a18.316,18.316,0,0,0,8.614-1.9,17.187,17.187,0,0,0,5.935-5.043,21.466,21.466,0,0,0,3.432-7.293,33.369,33.369,0,0,0,1.11-8.646,32.352,32.352,0,0,0-1.323-9.617A20.862,20.862,0,0,0,43-59.907a16.413,16.413,0,0,0-6.078-4.576,19.68,19.68,0,0,0-8.008-1.573,17.873,17.873,0,0,0-8.543,1.928,17.379,17.379,0,0,0-5.935,5.112,21.862,21.862,0,0,0-3.432,7.329A33.37,33.37,0,0,0,9.9-43.032,33.652,33.652,0,0,0,11-34.309a21.466,21.466,0,0,0,3.432,7.293,16.841,16.841,0,0,0,5.935,5.005,18.778,18.778,0,0,0,8.688,1.855Z" transform="translate(598 2273)" fill="#fff"/>
    <g id="Group_44" data-name="Group 44" transform="translate(613.594 2215.587)" clip-path="url(#clip-path)">
      <path id="Path_178" data-name="Path 178" d="M1.67.054A4.422,4.422,0,0,1,3.885.245L3.95.421C3.5,1.372,2.972,2.288,2.5,3.229c-.075.134-.129.31-.28.376-.144.028-.232-.112-.313-.208C1.3,2.579.667,1.779.06.963A.239.239,0,0,1,.127.595,3.653,3.653,0,0,1,1.67.054" transform="translate(8.32 0.002)" fill="#fff"/>
      <path id="Path_179" data-name="Path 179" d="M.753.049A4.608,4.608,0,0,1,3.778.569a.25.25,0,0,1,.084.415c-.625.835-1.264,1.663-1.9,2.493a.217.217,0,0,1-.4-.032C1.074,2.531.6,1.608.114.693.051.562-.053.416.032.268A1.766,1.766,0,0,1,.753.049" transform="translate(14.266 0.006)" fill="#fff"/>
      <path id="Path_180" data-name="Path 180" d="M0,3.741C.662,2.5,1.305,1.243,1.969,0c.677,1.286,1.347,2.575,2.025,3.86L1.967,6.523Q1.048,5.31.121,4.1A.722.722,0,0,1,0,3.741" transform="translate(11.296 0.858)" fill="#fff"/>
      <path id="Path_181" data-name="Path 181" d="M.075.429C-.051.3-.024.017.183,0A3.482,3.482,0,0,1,2.516,1.1c.139.162.056.4-.041.56a7.418,7.418,0,0,1-.774,1.2L1.475,2.9A20.5,20.5,0,0,0,.075.429" transform="translate(20.432 1.27)" fill="#fff"/>
      <path id="Path_182" data-name="Path 182" d="M.2.963A3.594,3.594,0,0,1,2.449,0a.245.245,0,0,1,.08.4,18.791,18.791,0,0,0-1.39,2.484L.89,2.874A8.106,8.106,0,0,1,.045,1.483.426.426,0,0,1,.2.963" transform="translate(3.499 1.269)" fill="#fff"/>
      <path id="Path_183" data-name="Path 183" d="M1.912.117a.226.226,0,0,1,.394.01c.714.929,1.419,1.863,2.135,2.792a.4.4,0,0,1,.062.463q-.786,1.5-1.568,2.99c-.12,0-.251.017-.336-.091A25.625,25.625,0,0,1,.137,3.852.632.632,0,0,1,0,3.515,14.343,14.343,0,0,1,1.912.116" transform="translate(5.36 1.674)" fill="#fff"/>
      <path id="Path_184" data-name="Path 184" d="M2.258.1A.208.208,0,0,1,2.614.091,13.742,13.742,0,0,1,4.5,3.4a.393.393,0,0,1-.033.4A27.01,27.01,0,0,1,1.83,6.4c-.269.017-.341-.269-.452-.465Q.723,4.666.062,3.415A.431.431,0,0,1,.13,2.888C.846,1.966,1.543,1.025,2.258.1" transform="translate(16.618 1.673)" fill="#fff"/>
      <path id="Path_185" data-name="Path 185" d="M1.251.334A1.216,1.216,0,0,1,1.988,0,13.117,13.117,0,0,0,3.357,2.107c.188.191.062.465-.009.677a28.265,28.265,0,0,0-.7,2.773c-.245.1-.42-.129-.59-.274A11.836,11.836,0,0,1,.074,3.072.964.964,0,0,1,.01,2.511,3.292,3.292,0,0,1,1.251.334" transform="translate(0.598 3.238)" fill="#fff"/>
      <path id="Path_186" data-name="Path 186" d="M1.332.245C1.393.139,1.46-.029,1.608,0a2.073,2.073,0,0,1,.763.472,3,3,0,0,1,1.06,2.512A11.006,11.006,0,0,1,.99,5.617C.9,5.547.753,5.511.753,5.363a20.643,20.643,0,0,0-.7-2.752.47.47,0,0,1,.02-.463A12.679,12.679,0,0,0,1.332.245" transform="translate(22.471 3.237)" fill="#fff"/>
      <path id="Path_187" data-name="Path 187" d="M1.378.151A.215.215,0,0,1,1.759.094c.533.684,1.054,1.381,1.581,2.068v.287c-.428.562-.857,1.136-1.293,1.7A.221.221,0,0,1,1.7,4.2C1.161,3.839.632,3.463.12,3.068A.277.277,0,0,1,.061,2.66C.5,1.825.934.985,1.378.151" transform="translate(9.138 5.948)" fill="#fff"/>
      <path id="Path_188" data-name="Path 188" d="M1.572.114a.215.215,0,0,1,.381,0c.458.854.9,1.718,1.355,2.577a.251.251,0,0,1-.064.364c-.541.424-1.1.817-1.674,1.2H1.393C.919,3.653.46,3.044,0,2.433c0-.091,0-.182.005-.274C.532,1.482,1.048.793,1.572.113" transform="translate(14.038 5.95)" fill="#fff"/>
      <path id="Path_189" data-name="Path 189" d="M.583.166A.209.209,0,0,1,.959.09,28.1,28.1,0,0,0,3.35,2.359c.018.094.035.189.053.284-.281.527-.557,1.061-.837,1.591-.045.107-.183.2-.291.126a17.372,17.372,0,0,1-2.1-1.2.418.418,0,0,1-.156-.473A19.056,19.056,0,0,1,.583.166" transform="translate(4.221 6.684)" fill="#fff"/>
      <path id="Path_190" data-name="Path 190" d="M2.423.1a.219.219,0,0,1,.4.075,21.57,21.57,0,0,1,.6,2.715.651.651,0,0,1-.226.3A17.127,17.127,0,0,1,1.091,4.378c-.164.057-.234-.12-.3-.236C.521,3.637.261,3.137,0,2.639c.011-.07.035-.208.046-.278A28.257,28.257,0,0,0,2.422.1" transform="translate(18.904 6.689)" fill="#fff"/>
      <path id="Path_191" data-name="Path 191" d="M2.437.093A.211.211,0,0,1,2.793.1a4.256,4.256,0,0,1-1.62,4.926C.916,5.224.63,5,.4,4.882a.806.806,0,0,1-.273-.263c.016-.705-.07-1.4-.123-2.1-.017-.195.156-.306.285-.4A15.018,15.018,0,0,0,2.437.093" transform="translate(23.496 7.891)" fill="#fff"/>
      <path id="Path_192" data-name="Path 192" d="M.258.069A.226.226,0,0,1,.611.115a14.84,14.84,0,0,0,2.21,2.062.411.411,0,0,1,.2.438c-.071.664-.106,1.331-.135,2-.09.267-.4.32-.61.452s-.427-.036-.6-.151A4.265,4.265,0,0,1,.258.069" transform="translate(0 7.889)" fill="#fff"/>
      <path id="Path_193" data-name="Path 193" d="M.038,1.232C.34.814.658.408.972,0c.318.4.629.8.927,1.219a.231.231,0,0,1-.239.319q-.71-.02-1.42,0a.2.2,0,0,1-.2-.306" transform="translate(12.288 9.14)" fill="#fff"/>
      <path id="Path_194" data-name="Path 194" d="M.43.02c.254-.1.43.187.63.3.167.136.5.275.343.552a4.754,4.754,0,0,1-1.114.207A.218.218,0,0,1,.01.805,5.8,5.8,0,0,1,.43.02" transform="translate(8.071 9.955)" fill="#fff"/>
      <path id="Path_195" data-name="Path 195" d="M.766.046c.272-.18.384.212.492.4.093.187.312.481.062.643C.957,1.082.6.989.234.954A.226.226,0,0,1,.054.585C.281.391.528.226.766.046" transform="translate(17.005 9.948)" fill="#fff"/>
      <path id="Path_196" data-name="Path 196" d="M.079.052c.234-.166.458.109.668.2.181.075.385.256.234.47A5.732,5.732,0,0,1,.3.974a.208.208,0,0,1-.3-.2A2.3,2.3,0,0,1,.074.052" transform="translate(3.984 11.086)" fill="#fff"/>
      <path id="Path_197" data-name="Path 197" d="M.592.076C.708-.017.927-.04.984.137a2.032,2.032,0,0,1,0,.8C.733,1.088.457.845.2.8A.254.254,0,0,1,.015.434,5.1,5.1,0,0,1,.592.076" transform="translate(21.515 11.082)" fill="#fff"/>
      <path id="Path_198" data-name="Path 198" d="M10.531.007A27.5,27.5,0,0,1,21.777,2.1a.555.555,0,0,1,.35.554c.013,1.305-.012,2.611-.1,3.914a17.976,17.976,0,0,1-.811,4.587,8.411,8.411,0,0,1-1.9,3.207,8.9,8.9,0,0,1-2.764,1.919c-1.154.556-2.308,1.115-3.413,1.772a5.135,5.135,0,0,0-1.649,1.37.527.527,0,0,1-.882.006,3.6,3.6,0,0,0-.847-.85A22.142,22.142,0,0,0,6.68,16.818a25.938,25.938,0,0,1-2.333-1.2,7.9,7.9,0,0,1-2.379-2.3A9.86,9.86,0,0,1,.652,10.272a31.433,31.433,0,0,1-.659-7.6A.6.6,0,0,1,.438,2.05,28.954,28.954,0,0,1,10.531.007" transform="translate(2.23 11.542)" fill="#fff"/>
    </g>
    <path id="Path_201" data-name="Path 201" d="M11.549-8.392l5.217-11.087q1.222.087,2.074.087a16.749,16.749,0,0,0,1.791-.087v.218a1.6,1.6,0,0,0-1.037.655,7.038,7.038,0,0,0-.273,2.619v4.671q0,7.814-.044,2.333A7.879,7.879,0,0,0,19.6-6.429,1.79,1.79,0,0,0,21-5.052v.218q-1.637-.087-2.9-.087-1.244,0-2.925.087v-.218A1.8,1.8,0,0,0,16.46-6.471,8.915,8.915,0,0,0,16.744-9Q16.7,2.915,16.7-11.317v-6.526l-6.33,13.4L4.019-17.712v6.417a17.969,17.969,0,0,0,.393,4.736,2.13,2.13,0,0,0,1.7,1.505v.218q-1.331-.087-2.379-.087-1.026,0-2.488.087v-.218A2.651,2.651,0,0,0,2.983-6.777a15.574,15.574,0,0,0,.448-4.516v-4.693a18.213,18.213,0,0,0-.066-1.989,1.437,1.437,0,0,0-.306-.742,2.024,2.024,0,0,0-1.091-.546v-.218q1.505.087,2.333.087a16.749,16.749,0,0,0,1.792-.087ZM35.843-4.878h-2.99a10.638,10.638,0,0,1-.611-2.2,5.946,5.946,0,0,1-1.225,1.55,4.516,4.516,0,0,1-2.944.96,6.128,6.128,0,0,1-3.634-1.015,3.077,3.077,0,0,1-1.43-2.608q0-2.161,2.554-3.143a15.12,15.12,0,0,1,5.369-.808h1.2v-.742q0-3.623-3.514-3.623a4.541,4.541,0,0,0-3.427,1.266,3.416,3.416,0,0,0-.828,1.615l-.2.065-.655-2.248a11.761,11.761,0,0,1,5.57-1.288,6.3,6.3,0,0,1,4.169,1.2,3.4,3.4,0,0,1,.993,1.452,7.194,7.194,0,0,1,.294,2.3v2.619q0,2.117.065,2.554.24,1.615,1.244,1.921Zm-3.711-6.679h-1.2q-5.173,0-5.173,3.383a3.044,3.044,0,0,0,.808,2.128,2.539,2.539,0,0,0,1.946.884,3.266,3.266,0,0,0,1.83-.544,3.729,3.729,0,0,0,1.288-1.441,7.834,7.834,0,0,0,.5-3.252Zm5.675-4.191v-.194q1.244-.2,3.47-.72-.087.978-.087,2.51v.589Q42.413-17.1,45.665-17.1a4.66,4.66,0,0,1,3.754,1.593,4.407,4.407,0,0,1,.939,2.183,18.2,18.2,0,0,1,.109,2.4v2.838a5.764,5.764,0,0,0,.371,2.445,1.407,1.407,0,0,0,.939.613v.194q-1.331-.087-2.445-.087-1.07,0-2.576.087v-.194a1.316,1.316,0,0,0,1-.764,6.623,6.623,0,0,0,.306-2.292v-2.949a8.824,8.824,0,0,0-.611-3.711,2.8,2.8,0,0,0-1.048-1.135,2.79,2.79,0,0,0-1.505-.437,3.1,3.1,0,0,0-2.772,1.943,7.32,7.32,0,0,0-.765,3.473v2.816a6.042,6.042,0,0,0,.371,2.445,1.315,1.315,0,0,0,.939.61v.194q-1.31-.087-2.488-.087-1.113,0-2.685.087v-.194a1.456,1.456,0,0,0,1.135-.764,6.01,6.01,0,0,0,.327-2.292v-3.669a17.788,17.788,0,0,0-.151-3.175q-.155-.535-1.006-.819ZM66.4-4.878H63.41a10.64,10.64,0,0,1-.611-2.2,5.946,5.946,0,0,1-1.225,1.55,4.516,4.516,0,0,1-2.944.96A6.128,6.128,0,0,1,55-5.587a3.077,3.077,0,0,1-1.43-2.608q0-2.161,2.554-3.143a15.12,15.12,0,0,1,5.369-.808h1.2v-.742q0-3.623-3.514-3.623a4.541,4.541,0,0,0-3.427,1.266,3.416,3.416,0,0,0-.828,1.615l-.2.065-.655-2.248A11.761,11.761,0,0,1,59.636-17.1,6.3,6.3,0,0,1,63.8-15.9a3.4,3.4,0,0,1,.993,1.452,7.193,7.193,0,0,1,.3,2.3v2.619q0,2.117.065,2.554Q65.4-5.353,66.4-5.048ZM62.69-11.557h-1.2q-5.173,0-5.173,3.383a3.044,3.044,0,0,0,.808,2.128,2.539,2.539,0,0,0,1.943.884,3.266,3.266,0,0,0,1.83-.544,3.729,3.729,0,0,0,1.288-1.441,7.834,7.834,0,0,0,.5-3.252Zm18.771-7.334-.808,2.532a2.242,2.242,0,0,0-1.9-1.048,1.984,1.984,0,0,0-1.528.742q3.252,1.331,3.252,3.732a3.72,3.72,0,0,1-2.161,3.3,9.354,9.354,0,0,1-4.147.96q-1.637.087-1.637.546,0,.306.546.437a16.73,16.73,0,0,0,2.27.24,17.974,17.974,0,0,1,4.322.633q2.052.72,2.052,2.292a3.164,3.164,0,0,1-2.032,2.805A11.591,11.591,0,0,1,74.347-.665a10.485,10.485,0,0,1-4.476-.818Q68.147-2.3,68.147-3.591A2.023,2.023,0,0,1,69.477-5.38a14.254,14.254,0,0,1,2.6-.764q-1.964-.415-1.964-1.2,0-1.091,2.6-1.637a10.831,10.831,0,0,1-1.985-.785,3.412,3.412,0,0,1-1.964-3.121,3.613,3.613,0,0,1,1.691-2.975A6.757,6.757,0,0,1,74.542-17.1a9.258,9.258,0,0,1,2.117.24,5.891,5.891,0,0,1,4.234-2.074Q80.981-18.934,81.461-18.891Zm-6.854,2.379a3.12,3.12,0,0,0-2.434.946,3.839,3.839,0,0,0-.863,2.673,3.839,3.839,0,0,0,.863,2.678,3.148,3.148,0,0,0,2.455.949,3.146,3.146,0,0,0,2.423-.939,3.7,3.7,0,0,0,.873-2.619Q77.925-16.511,74.607-16.511ZM75-5.838q-4.627,0-4.627,2.27,0,2.314,4.256,2.314a7.962,7.962,0,0,0,3.58-.677A2.032,2.032,0,0,0,79.54-3.743Q79.54-5.838,75-5.838Zm20.976-6.373H85.848q-.044.655-.044,1.31a7.507,7.507,0,0,0,.873,3.667,3.884,3.884,0,0,0,1.5,1.495,4.206,4.206,0,0,0,2.128.557A5.111,5.111,0,0,0,94.645-7.5a7.539,7.539,0,0,0,.982-2.032l.527.262A6.13,6.13,0,0,1,89.8-4.6a6.885,6.885,0,0,1-4.867-1.757,5.891,5.891,0,0,1-1.9-4.529,5.835,5.835,0,0,1,1.9-4.441A6.689,6.689,0,0,1,89.693-17.1a6.42,6.42,0,0,1,4.892,1.986,4.575,4.575,0,0,1,1.391,2.9ZM85.936-12.8h7.05a3.839,3.839,0,0,0-.927-2.7A3.167,3.167,0,0,0,89.6-16.511,3.273,3.273,0,0,0,87.169-15.5,4.678,4.678,0,0,0,85.936-12.8Zm12.158-2.947v-.194a33.97,33.97,0,0,0,3.47-.72q-.065.742-.087,2.51,0,.131-.022.589a7.9,7.9,0,0,1,1.375-2.226,4.441,4.441,0,0,1,3.252-1.2,4.228,4.228,0,0,1,4.453,3.274,4.6,4.6,0,0,1,4.584-3.383,4.311,4.311,0,0,1,3.754,1.7,4.269,4.269,0,0,1,.72,1.637,13.436,13.436,0,0,1,.2,2.641v3.034a5.946,5.946,0,0,0,.371,2.445,1.315,1.315,0,0,0,.939.611v.194q-1.4-.087-2.466-.087-1.048,0-2.554.087v-.194a1.382,1.382,0,0,0,1.026-.764,6.63,6.63,0,0,0,.284-2.292V-11.12q0-5.108-3.165-5.108a2.926,2.926,0,0,0-2.71,1.656,7.446,7.446,0,0,0-.72,3.6v2.881a5.807,5.807,0,0,0,.349,2.445,1.4,1.4,0,0,0,.96.611v.2q-1.331-.087-2.445-.087-1.07,0-2.576.087v-.194a1.382,1.382,0,0,0,1.026-.764,6.63,6.63,0,0,0,.284-2.292v-2.883a9.536,9.536,0,0,0-.5-3.58,2.559,2.559,0,0,0-2.532-1.656,3.285,3.285,0,0,0-2.9,1.812,6.6,6.6,0,0,0-.808,3.427v2.881a6.042,6.042,0,0,0,.371,2.445,1.315,1.315,0,0,0,.939.611v.193q-1.331-.087-2.466-.087-1.07,0-2.554.087v-.194a1.316,1.316,0,0,0,1-.764,6.624,6.624,0,0,0,.306-2.292v-3.669a17.788,17.788,0,0,0-.151-3.175Q98.944-15.464,98.093-15.747Zm37.673,3.537H125.639q-.044.655-.044,1.31a7.507,7.507,0,0,0,.873,3.667,3.885,3.885,0,0,0,1.495,1.495,4.206,4.206,0,0,0,2.128.557A5.111,5.111,0,0,0,134.434-7.5a7.539,7.539,0,0,0,.978-2.032l.527.262a6.13,6.13,0,0,1-6.352,4.671,6.885,6.885,0,0,1-4.866-1.757,5.891,5.891,0,0,1-1.9-4.529,5.835,5.835,0,0,1,1.9-4.441A6.689,6.689,0,0,1,129.48-17.1a6.42,6.42,0,0,1,4.892,1.986,4.575,4.575,0,0,1,1.394,2.9Zm-10.04-.589h7.049a3.838,3.838,0,0,0-.927-2.7,3.167,3.167,0,0,0-2.455-1.015,3.273,3.273,0,0,0-2.434,1.015,4.679,4.679,0,0,0-1.233,2.694Zm12.243-2.948v-.194q1.244-.2,3.47-.72-.087.978-.087,2.51v.589q1.222-3.537,4.475-3.537a4.66,4.66,0,0,1,3.754,1.593,4.407,4.407,0,0,1,.939,2.183,18.2,18.2,0,0,1,.109,2.4v2.838A5.765,5.765,0,0,0,151-5.641a1.407,1.407,0,0,0,.939.611v.2q-1.331-.087-2.445-.087-1.069,0-2.576.087v-.194a1.316,1.316,0,0,0,1-.764,6.623,6.623,0,0,0,.306-2.292v-2.949a8.824,8.824,0,0,0-.611-3.711,2.8,2.8,0,0,0-1.048-1.135,2.79,2.79,0,0,0-1.505-.437,3.1,3.1,0,0,0-2.772,1.943,7.319,7.319,0,0,0-.762,3.473v2.816a6.042,6.042,0,0,0,.371,2.445,1.315,1.315,0,0,0,.939.61v.194q-1.31-.087-2.488-.087-1.113,0-2.685.087v-.194a1.456,1.456,0,0,0,1.135-.764,6.01,6.01,0,0,0,.327-2.292v-3.669a17.79,17.79,0,0,0-.151-3.175Q138.822-15.464,137.969-15.747Zm19.317-3.973v3.514h2.6l-.371.72h-2.226v2.838q0,2.314.15,4.671a5.517,5.517,0,0,0,.458,2.161,1.656,1.656,0,0,0,1.244.764v.175h-3.252a2.136,2.136,0,0,1-.895-1.572,15.624,15.624,0,0,1-.066-1.877q0-1.113.065-3.078.044-1.31.044-1.833v-2.248h-1.986l.2-.458q2.357-.633,3.863-3.776Z" transform="translate(804.411 2286.854)" fill="#1db4d6"/>
  </g>
</svg>
